<mxfile host="app.diagrams.net" modified="2020-12-09T02:05:34.670Z" agent="5.0 (Windows NT 10.0; Win64; x64) AppleWebKit/537.36 (KHTML, like Gecko) Chrome/87.0.4280.66 Safari/537.36" etag="WyUtAuLfRDYWOBcNB60c" version="13.11.0" type="github">
  <diagram id="enQgF6B9f0KsXrYLEv7f" name="第 1 页">
    <mxGraphModel dx="1230" dy="836" grid="1" gridSize="10" guides="1" tooltips="1" connect="1" arrows="1" fold="1" page="1" pageScale="1" pageWidth="827" pageHeight="1169" math="0" shadow="0">
      <root>
        <mxCell id="0" />
        <mxCell id="1" parent="0" />
        <mxCell id="zdmaSNxNwozCKZnSaW3D-8" style="edgeStyle=orthogonalEdgeStyle;rounded=1;sketch=1;orthogonalLoop=1;jettySize=auto;html=1;entryX=0;entryY=0.5;entryDx=0;entryDy=0;shape=link;fontFamily=Comic Sans MS;strokeColor=#006658;fontColor=#5C5C5C;fontStyle=1;fontSize=14;" edge="1" parent="1" source="zdmaSNxNwozCKZnSaW3D-6" target="zdmaSNxNwozCKZnSaW3D-7">
          <mxGeometry relative="1" as="geometry" />
        </mxCell>
        <mxCell id="zdmaSNxNwozCKZnSaW3D-9" value="fock" style="edgeLabel;html=1;align=center;verticalAlign=middle;resizable=0;points=[];fontFamily=Comic Sans MS;fontColor=#5C5C5C;fontStyle=1;fontSize=14;" vertex="1" connectable="0" parent="zdmaSNxNwozCKZnSaW3D-8">
          <mxGeometry x="0.1253" y="1" relative="1" as="geometry">
            <mxPoint as="offset" />
          </mxGeometry>
        </mxCell>
        <mxCell id="zdmaSNxNwozCKZnSaW3D-6" value="父进程" style="shape=ext;double=1;whiteSpace=wrap;html=1;sketch=1;fontFamily=Comic Sans MS;fillColor=#21C0A5;strokeColor=#006658;fontColor=#5C5C5C;fontStyle=1;fontSize=14;" vertex="1" parent="1">
          <mxGeometry x="170" y="130" width="120" height="80" as="geometry" />
        </mxCell>
        <mxCell id="zdmaSNxNwozCKZnSaW3D-37" style="edgeStyle=orthogonalEdgeStyle;rounded=1;sketch=1;orthogonalLoop=1;jettySize=auto;html=1;entryX=1;entryY=0.5;entryDx=0;entryDy=0;fontFamily=Comic Sans MS;strokeColor=#006658;fontColor=#5C5C5C;fontStyle=1;fontSize=14;" edge="1" parent="1" source="zdmaSNxNwozCKZnSaW3D-7" target="zdmaSNxNwozCKZnSaW3D-35">
          <mxGeometry relative="1" as="geometry">
            <mxPoint x="750" y="360" as="targetPoint" />
            <Array as="points">
              <mxPoint x="740" y="170" />
              <mxPoint x="740" y="580" />
            </Array>
          </mxGeometry>
        </mxCell>
        <mxCell id="zdmaSNxNwozCKZnSaW3D-38" value="写RDB快照" style="edgeLabel;html=1;align=center;verticalAlign=middle;resizable=0;points=[];fontFamily=Comic Sans MS;fontColor=#5C5C5C;fontStyle=1;fontSize=14;" vertex="1" connectable="0" parent="zdmaSNxNwozCKZnSaW3D-37">
          <mxGeometry x="-0.668" y="2" relative="1" as="geometry">
            <mxPoint y="88" as="offset" />
          </mxGeometry>
        </mxCell>
        <mxCell id="zdmaSNxNwozCKZnSaW3D-7" value="子进程" style="shape=ext;double=1;whiteSpace=wrap;html=1;sketch=1;fontFamily=Comic Sans MS;fillColor=#21C0A5;strokeColor=#006658;fontColor=#5C5C5C;fontStyle=1;fontSize=14;" vertex="1" parent="1">
          <mxGeometry x="600" y="130" width="120" height="80" as="geometry" />
        </mxCell>
        <mxCell id="zdmaSNxNwozCKZnSaW3D-10" value="" style="shape=ext;double=1;rounded=0;whiteSpace=wrap;html=1;sketch=1;fontFamily=Comic Sans MS;fillColor=#21C0A5;strokeColor=#006658;fontColor=#5C5C5C;fontStyle=1;fontSize=14;" vertex="1" parent="1">
          <mxGeometry x="260" y="250" width="376" height="240" as="geometry" />
        </mxCell>
        <mxCell id="zdmaSNxNwozCKZnSaW3D-11" value="内存" style="rounded=1;whiteSpace=wrap;html=1;sketch=1;fontFamily=Comic Sans MS;fillColor=#21C0A5;strokeColor=#006658;fontColor=#5C5C5C;fontStyle=1;fontSize=14;" vertex="1" parent="1">
          <mxGeometry x="404" y="475" width="100" height="50" as="geometry" />
        </mxCell>
        <mxCell id="zdmaSNxNwozCKZnSaW3D-16" value="内存数据" style="rounded=0;whiteSpace=wrap;html=1;sketch=1;align=center;labelPosition=center;verticalLabelPosition=top;verticalAlign=bottom;fontFamily=Comic Sans MS;fillColor=#21C0A5;strokeColor=#006658;fontColor=#5C5C5C;fontStyle=1;fontSize=14;" vertex="1" parent="1">
          <mxGeometry x="285" y="275" width="110" height="200" as="geometry" />
        </mxCell>
        <mxCell id="zdmaSNxNwozCKZnSaW3D-13" value="A" style="shape=ext;double=1;rounded=1;whiteSpace=wrap;html=1;sketch=1;fontFamily=Comic Sans MS;fillColor=#21C0A5;strokeColor=#006658;fontColor=#5C5C5C;fontStyle=1;fontSize=14;" vertex="1" parent="1">
          <mxGeometry x="290" y="300" width="100" height="50" as="geometry" />
        </mxCell>
        <mxCell id="zdmaSNxNwozCKZnSaW3D-14" value="B" style="shape=ext;double=1;rounded=1;whiteSpace=wrap;html=1;sketch=1;fontFamily=Comic Sans MS;fillColor=#21C0A5;strokeColor=#006658;fontColor=#5C5C5C;fontStyle=1;fontSize=14;" vertex="1" parent="1">
          <mxGeometry x="290" y="360" width="100" height="50" as="geometry" />
        </mxCell>
        <mxCell id="zdmaSNxNwozCKZnSaW3D-29" style="edgeStyle=orthogonalEdgeStyle;rounded=1;sketch=1;orthogonalLoop=1;jettySize=auto;html=1;entryX=0;entryY=0.5;entryDx=0;entryDy=0;fontFamily=Comic Sans MS;strokeColor=#006658;fontColor=#5C5C5C;fontStyle=1;fontSize=14;" edge="1" parent="1" source="zdmaSNxNwozCKZnSaW3D-15" target="zdmaSNxNwozCKZnSaW3D-28">
          <mxGeometry relative="1" as="geometry" />
        </mxCell>
        <mxCell id="zdmaSNxNwozCKZnSaW3D-30" value="写实复制" style="edgeLabel;html=1;align=center;verticalAlign=middle;resizable=0;points=[];fontFamily=Comic Sans MS;fontColor=#5C5C5C;fontStyle=1;fontSize=14;" vertex="1" connectable="0" parent="zdmaSNxNwozCKZnSaW3D-29">
          <mxGeometry x="0.2123" y="-2" relative="1" as="geometry">
            <mxPoint as="offset" />
          </mxGeometry>
        </mxCell>
        <mxCell id="zdmaSNxNwozCKZnSaW3D-15" value="C" style="shape=ext;double=1;rounded=1;whiteSpace=wrap;html=1;sketch=1;fontFamily=Comic Sans MS;fillColor=#21C0A5;strokeColor=#006658;fontColor=#5C5C5C;fontStyle=1;fontSize=14;" vertex="1" parent="1">
          <mxGeometry x="290" y="420" width="100" height="50" as="geometry" />
        </mxCell>
        <mxCell id="zdmaSNxNwozCKZnSaW3D-17" style="rounded=1;sketch=1;orthogonalLoop=1;jettySize=auto;html=1;fontFamily=Comic Sans MS;strokeColor=#006658;fontColor=#5C5C5C;fontStyle=1;fontSize=14;" edge="1" parent="1" source="zdmaSNxNwozCKZnSaW3D-6" target="zdmaSNxNwozCKZnSaW3D-13">
          <mxGeometry relative="1" as="geometry" />
        </mxCell>
        <mxCell id="zdmaSNxNwozCKZnSaW3D-18" value="读" style="edgeLabel;html=1;align=center;verticalAlign=middle;resizable=0;points=[];fontFamily=Comic Sans MS;fontColor=#5C5C5C;fontStyle=1;fontSize=14;" vertex="1" connectable="0" parent="zdmaSNxNwozCKZnSaW3D-17">
          <mxGeometry x="-0.5312" y="-2" relative="1" as="geometry">
            <mxPoint as="offset" />
          </mxGeometry>
        </mxCell>
        <mxCell id="zdmaSNxNwozCKZnSaW3D-19" style="edgeStyle=none;rounded=1;sketch=1;orthogonalLoop=1;jettySize=auto;html=1;fontFamily=Comic Sans MS;strokeColor=#006658;fontColor=#5C5C5C;fontStyle=1;fontSize=14;" edge="1" parent="1" source="zdmaSNxNwozCKZnSaW3D-7" target="zdmaSNxNwozCKZnSaW3D-13">
          <mxGeometry relative="1" as="geometry" />
        </mxCell>
        <mxCell id="zdmaSNxNwozCKZnSaW3D-20" value="读" style="edgeLabel;html=1;align=center;verticalAlign=middle;resizable=0;points=[];fontFamily=Comic Sans MS;fontColor=#5C5C5C;fontStyle=1;fontSize=14;" vertex="1" connectable="0" parent="zdmaSNxNwozCKZnSaW3D-19">
          <mxGeometry x="-0.5415" y="-2" relative="1" as="geometry">
            <mxPoint x="-1" as="offset" />
          </mxGeometry>
        </mxCell>
        <mxCell id="zdmaSNxNwozCKZnSaW3D-22" style="edgeStyle=none;rounded=1;sketch=1;orthogonalLoop=1;jettySize=auto;html=1;entryX=0.44;entryY=1.033;entryDx=0;entryDy=0;entryPerimeter=0;fontFamily=Comic Sans MS;strokeColor=#006658;fontColor=#5C5C5C;fontStyle=1;fontSize=14;" edge="1" parent="1" source="zdmaSNxNwozCKZnSaW3D-21" target="zdmaSNxNwozCKZnSaW3D-6">
          <mxGeometry relative="1" as="geometry" />
        </mxCell>
        <mxCell id="zdmaSNxNwozCKZnSaW3D-24" value="set" style="edgeLabel;html=1;align=center;verticalAlign=middle;resizable=0;points=[];fontFamily=Comic Sans MS;fontColor=#5C5C5C;fontStyle=1;fontSize=14;" vertex="1" connectable="0" parent="zdmaSNxNwozCKZnSaW3D-22">
          <mxGeometry x="-0.2656" y="-2" relative="1" as="geometry">
            <mxPoint as="offset" />
          </mxGeometry>
        </mxCell>
        <mxCell id="zdmaSNxNwozCKZnSaW3D-21" value="客户端" style="rounded=1;whiteSpace=wrap;html=1;sketch=1;fontFamily=Comic Sans MS;fillColor=#21C0A5;strokeColor=#006658;fontColor=#5C5C5C;" vertex="1" parent="1">
          <mxGeometry x="30" y="320" width="120" height="60" as="geometry" />
        </mxCell>
        <mxCell id="zdmaSNxNwozCKZnSaW3D-25" style="edgeStyle=orthogonalEdgeStyle;rounded=1;sketch=1;orthogonalLoop=1;jettySize=auto;html=1;entryX=0;entryY=0.5;entryDx=0;entryDy=0;fontFamily=Comic Sans MS;strokeColor=#006658;fontColor=#5C5C5C;fontStyle=1;fontSize=14;" edge="1" parent="1" source="zdmaSNxNwozCKZnSaW3D-6" target="zdmaSNxNwozCKZnSaW3D-15">
          <mxGeometry relative="1" as="geometry" />
        </mxCell>
        <mxCell id="zdmaSNxNwozCKZnSaW3D-26" value="修改" style="edgeLabel;html=1;align=center;verticalAlign=middle;resizable=0;points=[];fontFamily=Comic Sans MS;fontColor=#5C5C5C;fontStyle=1;fontSize=14;" vertex="1" connectable="0" parent="zdmaSNxNwozCKZnSaW3D-25">
          <mxGeometry x="-0.4631" y="-1" relative="1" as="geometry">
            <mxPoint as="offset" />
          </mxGeometry>
        </mxCell>
        <mxCell id="zdmaSNxNwozCKZnSaW3D-28" value="C" style="shape=ext;double=1;rounded=1;whiteSpace=wrap;html=1;sketch=1;fontFamily=Comic Sans MS;fillColor=#21C0A5;strokeColor=#006658;fontColor=#5C5C5C;fontStyle=1;fontSize=14;" vertex="1" parent="1">
          <mxGeometry x="520" y="420" width="100" height="50" as="geometry" />
        </mxCell>
        <mxCell id="zdmaSNxNwozCKZnSaW3D-32" value="副本C" style="text;html=1;strokeColor=none;fillColor=none;align=center;verticalAlign=middle;whiteSpace=wrap;rounded=0;sketch=1;fontFamily=Comic Sans MS;fontColor=#5C5C5C;fontStyle=1;fontSize=14;" vertex="1" parent="1">
          <mxGeometry x="550" y="400" width="40" height="20" as="geometry" />
        </mxCell>
        <mxCell id="zdmaSNxNwozCKZnSaW3D-33" style="rounded=1;sketch=1;orthogonalLoop=1;jettySize=auto;html=1;entryX=1;entryY=0.5;entryDx=0;entryDy=0;fontFamily=Comic Sans MS;strokeColor=#006658;fontColor=#5C5C5C;fontStyle=1;fontSize=14;" edge="1" parent="1" source="zdmaSNxNwozCKZnSaW3D-7" target="zdmaSNxNwozCKZnSaW3D-28">
          <mxGeometry relative="1" as="geometry" />
        </mxCell>
        <mxCell id="zdmaSNxNwozCKZnSaW3D-34" value="读" style="edgeLabel;html=1;align=center;verticalAlign=middle;resizable=0;points=[];fontFamily=Comic Sans MS;fontColor=#5C5C5C;fontStyle=1;fontSize=14;" vertex="1" connectable="0" parent="zdmaSNxNwozCKZnSaW3D-33">
          <mxGeometry x="-0.7525" y="1" relative="1" as="geometry">
            <mxPoint as="offset" />
          </mxGeometry>
        </mxCell>
        <mxCell id="zdmaSNxNwozCKZnSaW3D-35" value="磁盘" style="ellipse;shape=doubleEllipse;whiteSpace=wrap;html=1;aspect=fixed;sketch=1;fontFamily=Comic Sans MS;fillColor=#21C0A5;strokeColor=#006658;fontColor=#5C5C5C;fontStyle=1;fontSize=14;" vertex="1" parent="1">
          <mxGeometry x="414" y="540" width="80" height="80" as="geometry" />
        </mxCell>
      </root>
    </mxGraphModel>
  </diagram>
</mxfile>
